# xmcd
#
# Track frame offsets:
#	150
#	5123
#	43156
#	86255
#	142253
#	180318
#	215899
#	258882
#
# Disc length: 3499 seconds
#
# Revision: 0
# Processed by: cddbd v1.5.2PL0 Copyright (c) Steve Scherf et al.
# Submitted via: EasyCDDAExtractor 16.0.9.1
#
DISCID=700da908
DTITLE=Various Artist - TNCD223: Thơ Nhạc Giao Duyên Vol.1
DYEAR=2000
DGENRE=Country
TTITLE0=Hồng Vân - Lời Giới Thiệu
TTITLE1=Hương Lan and Hồng Vân  - Nhạc: Vỹ Dạ Đò Trăng (Canh Thân) and Thơ: Đây Th
TTITLE1=ôn Vỹ Dạ (Hàn Mặc Tử)
TTITLE2=Hồng Vân and Ý Lan - Thơ: Lời Kỹ Nữ (Xuân Diệu) and Nhạc: Ánh Đèn Màu (Nhạ
TTITLE2=c: Ngoại Quốc, Lời Việt: Phạm Duy)
TTITLE3=Hồng Vân and Elvis Phương - Thơ: Màu Tím Hoa Sim (Hữu Loan) and Nhạc: Áo A
TTITLE3=nh Sứt Chỉ Đường Tà (Nhạc: Phạm Duy)
TTITLE4=Tô Kiều Ngân and Nguyễn Hưng - Thơ: Rượu Đắng (Tô Kiều Ngân) and Say (Lam 
TTITLE4=Phương)
TTITLE5=Hồng Vân and Hoàng Lan - Thơ: Đà Lạt Sương Mờ (Hàn Mặc Tử) and Nhạc: Đà Lạ
TTITLE5=t Hoàng Hôn (Minh Kỳ - Dạ Cầm)
TTITLE6=Hồng Vân and Duy Trác - Thơ: Đôi Mắt Người Sơn Tây (Quang Dũng) and Nhạc: 
TTITLE6=Đôi Mắt Người Sơn Tây (Nhạc: Phạm Đình Chương)
TTITLE7=Hồng Vân - Lời Kết
EXTD=
EXTT0=
EXTT1=
EXTT2=
EXTT3=
EXTT4=
EXTT5=
EXTT6=
EXTT7=
PLAYORDER=
